# xmcd
#
# Track frame offsets: 
#        150
#        22506
#        39374
#        60000
#        93679
#        111886
#        134073
#
# Disc length: 1910 seconds
#
# Revision: 0
# Processed by: cddbd v1.5.2PL0 Copyright (c) Steve Scherf et al.
# Submitted via: ExactAudioCopy v1.0b3
#
DISCID=4e077407
DTITLE=Sugar Brown and The Short Film Festival - Looking For 2 O'Clock
DYEAR=2011
DGENRE=Blues
TTITLE0=Looking For 2 O'clock
TTITLE1=Day's Boogie (inst.)
TTITLE2=Country Blues
TTITLE3=Man Without A Name
TTITLE4=Volcano Woman
TTITLE5=Hi! Ken (inst.)
TTITLE6=Bicycle (inst.)
EXTD=
EXTT0=
EXTT1=
EXTT2=
EXTT3=
EXTT4=
EXTT5=
EXTT6=
PLAYORDER=
